<svg xmlns="http://www.w3.org/2000/svg" version="1.1" xmlns:xlink="http://www.w3.org/1999/xlink" xmlns:svgjs="http://svgjs.dev/svgjs" width="1000" height="750" viewBox="0 0 1000 750"><rect width="1000" height="750" fill="#000000"></rect><g transform="matrix(0.834,0,0,0.834,82.49454545454546,115.4193570850203)"><svg viewBox="0 0 396 247" data-background-color="#111111" preserveAspectRatio="xMidYMid meet" height="623" width="1000" xmlns="http://www.w3.org/2000/svg" xmlns:xlink="http://www.w3.org/1999/xlink"><g id="tight-bounds" transform="matrix(1,0,0,1,0.2400000000000091,-0.09999999999999432)"><svg viewBox="0 0 395.52 247.2" height="247.2" width="395.52"><g><svg></svg></g><g><svg viewBox="0 0 395.52 247.2" height="247.2" width="395.52"><g transform="matrix(1,0,0,1,121.92821212669682,47.215199999999996)"><svg viewBox="0 0 151.66357574660634 152.7696" height="152.7696" width="151.66357574660634"><g><svg viewBox="0 0 151.66357574660634 152.7696" height="152.7696" width="151.66357574660634"><g><svg viewBox="0 0 151.66357574660634 152.7696" height="152.7696" width="151.66357574660634"><g><svg viewBox="0 0 151.66357574660634 152.7696" height="152.7696" width="151.66357574660634"><g id="textblocktransform"><svg viewBox="0 0 151.66357574660634 152.7696" height="152.7696" width="151.66357574660634" id="textblock"><g><svg viewBox="0 0 151.66357574660634 152.7696" height="152.7696" width="151.66357574660634"><g transform="matrix(1,0,0,1,0,0)"><svg width="151.66357574660634" viewBox="0.24 -26.51 26.790000000000003 26.970000000000002" height="152.7696" data-palette-color="#ffffff"><path d="M1.55 0.46Q1.2 0.46 0.9 0.18 0.61-0.1 0.61-0.49L0.61-0.49Q0.61-1.27 1.49-1.93L1.49-1.93Q2.37-2.59 2.76-3.13L2.76-3.13Q2.76-3.13 9.23-11.06L9.23-11.06 0.24-26.07 11.35-26.07 16.53-17.46Q21.04-23.27 21.39-23.8L21.39-23.8Q22.05-24.83 22.27-25.39L22.27-25.39Q22.73-26.51 23.56-26.51L23.56-26.51Q23.95-26.51 24.26-26.26 24.56-26 24.56-25.63 24.56-25.27 24.43-24.9 24.29-24.54 23.97-23.97L23.97-23.97Q23.34-22.9 21.75-20.87L21.75-20.87 17.63-15.63 27.03 0 15.87 0 10.3-9.28 4.35-1.78Q2.81 0.15 2.15 0.39L2.15 0.39Q1.9 0.46 1.55 0.46Z" opacity="1" transform="matrix(1,0,0,1,0,0)" fill="#ffffff" class="wordmark-text-0" data-fill-palette-color="primary" id="text-0"></path></svg></g></svg></g></svg></g></svg></g></svg></g></svg></g></svg></g><g><path d="M0 123.6c0-68.262 55.338-123.6 123.6-123.6 30.402 0 58.24 10.976 79.768 29.183l-11.147 0c-19.26-14.022-42.974-22.294-68.621-22.295-64.458 0-116.712 52.254-116.712 116.712 0 64.458 52.254 116.712 116.712 116.712 25.647 0 49.361-8.272 68.621-22.295l11.147 0c-21.528 18.206-49.366 29.183-79.768 29.183-68.262 0-123.6-55.338-123.6-123.6z" fill="#ffffff" stroke="transparent" data-fill-palette-color="tertiary"></path></g></svg></g><defs></defs></svg><rect width="395.52" height="247.2" fill="none" stroke="none" visibility="hidden"></rect></g></svg></g></svg>